# xmcd CD database file
#
# Track frame offsets:
#	150
#	19125
#	38145
#	56930
#	71757
#	92020
#	113355
#	127205
#	144740
#	163930
#	186465
#	227860
#	254922
#
# Disc length: 3657 seconds
#
# Revision: 5
# Processed by: cddbd v1.5.2PL0 Copyright (c) Steve Scherf et al.
# Submitted via: CDex 1.51
#
DISCID=cb0e470d
DTITLE=Karen Carroll - Talk To The Hand
DYEAR=1997
DGENRE=Blues
TTITLE0=Ain't It Nice
TTITLE1=I'm Glad
TTITLE2=Don't Make Me Wait
TTITLE3=Tired Of Being Mistreated
TTITLE4=Can't Fight The Blues
TTITLE5=I Need A Friend
TTITLE6=Talk To The Hand
TTITLE7=Do I Move You?
TTITLE8=Misty Blue
TTITLE9=Sweet Home Chicago
TTITLE10=Neked J Blues
TTITLE11=How Blue Can You Get
TTITLE12=Please Come Back Home
EXTD=YEAR: 1997
EXTT0=
EXTT1=
EXTT2=
EXTT3=
EXTT4=
EXTT5=
EXTT6=
EXTT7=
EXTT8=
EXTT9=
EXTT10=
EXTT11=
EXTT12=
PLAYORDER=
